<?xml version="1.0" encoding="UTF-8"?>
<svg width="942px" height="154px" viewBox="0 0 942 154" version="1.1" xmlns="http://www.w3.org/2000/svg" xmlns:xlink="http://www.w3.org/1999/xlink">
    <!-- Generator: Sketch 60.1 (88133) - https://sketch.com -->
    <title>Group 3</title>
    <desc>Created with Sketch.</desc>
    <g id="Page-1" stroke="none" stroke-width="1" fill="none" fill-rule="evenodd">
        <g id="DCP-case" transform="translate(-499.000000, -526.000000)">
            <g id="Group-3" transform="translate(499.000000, 526.000000)">
                <g id="Group-2" transform="translate(239.000000, 30.000000)" fill="#F6F6F6">
                    <g fill="#35889a"><path d="M2.08895397,49.016771 C1.63234973,49.016771 1.23282701,48.8462796 0.890373825,48.5052916 C0.547920642,48.1643037 0.376696618,47.7664904 0.376696618,47.3118398 L0.376696618,3.05182678 C0.376696618,2.55171114 0.536505707,2.13116566 0.856128678,1.79017772 C1.17575165,1.44918978 1.5866893,1.27869837 2.08895397,1.27869837 L20.1019014,1.27869837 C26.8596442,1.27869837 32.1105142,2.88131764 35.854669,6.08660426 C39.5988238,9.29189087 41.5621926,13.895159 41.7448343,19.8965467 C41.7904948,21.2150334 41.8133246,22.9654119 41.8133246,25.1477347 C41.8133246,27.3300575 41.7904948,29.0577038 41.7448343,30.3307254 C41.2882301,42.7881514 34.1881406,49.016771 20.4443528,49.016771 L2.08895397,49.016771 Z M20.1019014,38.787184 C22.9785081,38.787184 25.101686,38.1052183 26.4714987,36.7412666 C27.8413115,35.3773148 28.5718673,33.1950248 28.6631881,30.1943309 C28.754509,28.8758442 28.8001687,27.1709301 28.8001687,25.0795374 C28.8001687,22.9881447 28.754509,21.3059628 28.6631881,20.0329412 C28.5718673,17.1231774 27.7842368,14.9749857 26.300273,13.5883014 C24.8163092,12.2016171 22.6360566,11.5082854 19.7594499,11.5082854 L13.2528719,11.5082854 L13.2528719,38.787184 L20.1019014,38.787184 Z M73.3359825,49.6987434 C66.8522023,49.6987434 61.7383114,48.1302224 57.9941566,44.9931334 C54.2500018,41.8560444 52.2638032,37.2414102 52.035501,31.1490924 C51.9898406,29.8760707 51.9670107,27.9211025 51.9670107,25.2841292 C51.9670107,22.6471558 51.9898406,20.6694554 52.035501,19.3509687 C52.2181427,13.349581 54.2157563,8.72358071 58.0284018,5.47282904 C61.8410472,2.22207736 66.9435231,0.596725907 73.3359825,0.596725907 C79.6827815,0.596725907 84.7624276,2.22207736 88.575073,5.47282904 C92.3877184,8.72358071 94.3853321,13.349581 94.5679737,19.3509687 C94.6592946,21.9879421 94.7049543,23.9656425 94.7049543,25.2841292 C94.7049543,26.6480809 94.6592946,28.6030491 94.5679737,31.1490924 C94.3396716,37.2414102 92.3648879,41.8560444 88.6435633,44.9931334 C84.9222387,48.1302224 79.8197628,49.6987434 73.3359825,49.6987434 Z M73.3359825,39.4691564 C75.7103246,39.4691564 77.6052038,38.7530925 79.020677,37.3209432 C80.4361501,35.8887938 81.1895358,33.6951377 81.2808567,30.7399089 C81.3721775,28.1029355 81.4178373,26.2161639 81.4178373,25.0795374 C81.4178373,23.942911 81.3721775,22.1016037 81.2808567,19.5555605 C81.1895358,16.6003317 80.4361501,14.4066755 79.020677,12.9745262 C77.6052038,11.5423768 75.7103246,10.8263129 73.3359825,10.8263129 C70.91598,10.8263129 68.998271,11.5423768 67.5827978,12.9745262 C66.1673247,14.4066755 65.413939,16.6003317 65.3226181,19.5555605 C65.2769577,20.8285821 65.2541278,22.6698893 65.2541278,25.0795374 C65.2541278,27.5346506 65.2769577,29.4214222 65.3226181,30.7399089 C65.413939,33.6951377 66.1673247,35.8887938 67.5827978,37.3209432 C68.998271,38.7530925 70.91598,39.4691564 73.3359825,39.4691564 Z M126.159122,49.6987434 C119.629681,49.6987434 114.504375,48.1302224 110.783051,44.9931334 C107.061726,41.8560444 105.086943,37.2641424 104.85864,31.2172896 C104.81298,29.989733 104.79015,27.9893005 104.79015,25.2159319 C104.79015,22.3970983 104.81298,20.3512014 104.85864,19.0781797 C105.086943,13.1677221 107.084556,8.6099184 110.851541,5.40463179 C114.618526,2.19934518 119.721002,0.596725907 126.159122,0.596725907 C130.2229,0.596725907 133.864264,1.25595937 137.083324,2.57444606 C140.302384,3.89293275 142.847914,5.80243656 144.719992,8.30301477 C146.592069,10.803593 147.573753,13.7587774 147.665074,17.1686568 C147.665074,17.5778423 147.51668,17.9188252 147.219887,18.1916155 C146.923095,18.4644059 146.569232,18.600799 146.158288,18.600799 L136.432666,18.600799 C135.79342,18.600799 135.325408,18.475772 135.028615,18.2257141 C134.731822,17.9756563 134.469279,17.5096465 134.240977,16.8276706 C133.601731,14.5998827 132.631461,13.0427278 131.330139,12.1561592 C130.028817,11.2695906 128.305162,10.8263129 126.159122,10.8263129 C120.999494,10.8263129 118.328399,13.6905686 118.145758,19.419166 C118.100097,20.6467225 118.077267,22.5334942 118.077267,25.0795374 C118.077267,27.6255807 118.100097,29.5578167 118.145758,30.8763034 C118.328399,36.6049007 120.999494,39.4691564 126.159122,39.4691564 C128.259501,39.4691564 129.983157,39.0145127 131.330139,38.1052115 C132.677122,37.1959103 133.647391,35.6501215 134.240977,33.4677987 C134.423618,32.7858229 134.674747,32.319813 134.99437,32.0697552 C135.313993,31.8196974 135.79342,31.6946703 136.432666,31.6946703 L146.158288,31.6946703 C146.569232,31.6946703 146.923095,31.8310635 147.219887,32.1038538 C147.51668,32.3766442 147.665074,32.717627 147.665074,33.1268125 C147.573753,36.5366919 146.592069,39.4918764 144.719992,41.9924546 C142.847914,44.4930328 140.302384,46.4025366 137.083324,47.7210233 C133.864264,49.03951 130.2229,49.6987434 126.159122,49.6987434 Z M170.831916,49.016771 C170.329652,49.016771 169.907299,48.8576456 169.564846,48.5393902 C169.222393,48.2211348 169.051169,47.8119554 169.051169,47.3118398 L169.051169,12.3948496 L156.996877,12.3948496 C156.494612,12.3948496 156.07226,12.2357242 155.729806,11.9174688 C155.387353,11.5992134 155.216129,11.190034 155.216129,10.6899184 L155.216129,3.05182678 C155.216129,2.55171114 155.387353,2.13116566 155.729806,1.79017772 C156.07226,1.44918978 156.494612,1.27869837 156.996877,1.27869837 L194.187107,1.27869837 C194.689371,1.27869837 195.111724,1.44918978 195.454177,1.79017772 C195.79663,2.13116566 195.967854,2.55171114 195.967854,3.05182678 L195.967854,10.6899184 C195.967854,11.190034 195.79663,11.5992134 195.454177,11.9174688 C195.111724,12.2357242 194.689371,12.3948496 194.187107,12.3948496 L182.132815,12.3948496 L182.132815,47.3118398 C182.132815,47.8119554 181.961591,48.2211348 181.619138,48.5393902 C181.276685,48.8576456 180.854332,49.016771 180.352067,49.016771 L170.831916,49.016771 Z M225.024862,49.6987434 C218.541081,49.6987434 213.427191,48.1302224 209.683036,44.9931334 C205.938881,41.8560444 203.952682,37.2414102 203.72438,31.1490924 C203.67872,29.8760707 203.65589,27.9211025 203.65589,25.2841292 C203.65589,22.6471558 203.67872,20.6694554 203.72438,19.3509687 C203.907022,13.349581 205.904635,8.72358071 209.717281,5.47282904 C213.529926,2.22207736 218.632402,0.596725907 225.024862,0.596725907 C231.371661,0.596725907 236.451307,2.22207736 240.263952,5.47282904 C244.076598,8.72358071 246.074211,13.349581 246.256853,19.3509687 C246.348174,21.9879421 246.393833,23.9656425 246.393833,25.2841292 C246.393833,26.6480809 246.348174,28.6030491 246.256853,31.1490924 C246.028551,37.2414102 244.053767,41.8560444 240.332442,44.9931334 C236.611118,48.1302224 231.508642,49.6987434 225.024862,49.6987434 Z M225.024862,39.4691564 C227.399204,39.4691564 229.294083,38.7530925 230.709556,37.3209432 C232.125029,35.8887938 232.878415,33.6951377 232.969736,30.7399089 C233.061057,28.1029355 233.106716,26.2161639 233.106716,25.0795374 C233.106716,23.942911 233.061057,22.1016037 232.969736,19.5555605 C232.878415,16.6003317 232.125029,14.4066755 230.709556,12.9745262 C229.294083,11.5423768 227.399204,10.8263129 225.024862,10.8263129 C222.604859,10.8263129 220.68715,11.5423768 219.271677,12.9745262 C217.856204,14.4066755 217.102818,16.6003317 217.011497,19.5555605 C216.965837,20.8285821 216.943007,22.6698893 216.943007,25.0795374 C216.943007,27.5346506 216.965837,29.4214222 217.011497,30.7399089 C217.102818,33.6951377 217.856204,35.8887938 219.271677,37.3209432 C220.68715,38.7530925 222.604859,39.4691564 225.024862,39.4691564 Z M259.698073,49.016771 C259.241469,49.016771 258.841946,48.8462796 258.499493,48.5052916 C258.15704,48.1643037 257.985816,47.7664904 257.985816,47.3118398 L257.985816,3.05182678 C257.985816,2.55171114 258.145625,2.13116566 258.465248,1.79017772 C258.784871,1.44918978 259.195808,1.27869837 259.698073,1.27869837 L278.532904,1.27869837 C284.56008,1.27869837 289.274448,2.64262966 292.67615,5.37053317 C296.077851,8.09843667 297.778677,11.9401765 297.778677,16.8958678 C297.778677,20.0784219 297.036706,22.7835523 295.552742,25.0113402 C294.068778,27.239128 292.025505,28.9667743 289.422861,30.1943309 L298.669051,46.8344591 C298.806032,47.1072494 298.874521,47.3573035 298.874521,47.5846288 C298.874521,47.9483493 298.737542,48.277966 298.46358,48.5734889 C298.189617,48.8690117 297.847169,49.016771 297.436225,49.016771 L287.779094,49.016771 C286.454941,49.016771 285.518917,48.4030019 284.970992,47.1754453 L277.437059,32.3766428 L270.861991,32.3766428 L270.861991,47.3118398 C270.861991,47.8119554 270.690767,48.2211348 270.348314,48.5393902 C270.005861,48.8576456 269.583508,49.016771 269.081243,49.016771 L259.698073,49.016771 Z M278.464414,22.3516476 C280.427812,22.3516476 281.923168,21.8629055 282.950528,20.8854068 C283.977888,19.907908 284.49156,18.5553428 284.49156,16.8276706 C284.49156,15.0999984 283.977888,13.7133349 282.950528,12.6676385 C281.923168,11.6219422 280.427812,11.0991019 278.464414,11.0991019 L270.861991,11.0991019 L270.861991,22.3516476 L278.464414,22.3516476 Z M329.095864,49.6987434 C322.566423,49.6987434 317.441117,48.1302224 313.719793,44.9931334 C309.998468,41.8560444 308.023684,37.2641424 307.795382,31.2172896 C307.749722,29.989733 307.726892,27.9893005 307.726892,25.2159319 C307.726892,22.3970983 307.749722,20.3512014 307.795382,19.0781797 C308.023684,13.1677221 310.021298,8.6099184 313.788283,5.40463179 C317.555268,2.19934518 322.657744,0.596725907 329.095864,0.596725907 C333.159642,0.596725907 336.801006,1.25595937 340.020066,2.57444606 C343.239126,3.89293275 345.784656,5.80243656 347.656733,8.30301477 C349.528811,10.803593 350.510495,13.7587774 350.601816,17.1686568 C350.601816,17.5778423 350.453422,17.9188252 350.156629,18.1916155 C349.859836,18.4644059 349.505973,18.600799 349.09503,18.600799 L339.369408,18.600799 C338.730162,18.600799 338.26215,18.475772 337.965357,18.2257141 C337.668564,17.9756563 337.406021,17.5096465 337.177718,16.8276706 C336.538473,14.5998827 335.568203,13.0427278 334.266881,12.1561592 C332.965559,11.2695906 331.241904,10.8263129 329.095864,10.8263129 C323.936236,10.8263129 321.265141,13.6905686 321.082499,19.419166 C321.036839,20.6467225 321.014009,22.5334942 321.014009,25.0795374 C321.014009,27.6255807 321.036839,29.5578167 321.082499,30.8763034 C321.265141,36.6049007 323.936236,39.4691564 329.095864,39.4691564 C331.196243,39.4691564 332.919898,39.0145127 334.266881,38.1052115 C335.613863,37.1959103 336.584133,35.6501215 337.177718,33.4677987 C337.36036,32.7858229 337.611489,32.319813 337.931112,32.0697552 C338.250735,31.8196974 338.730162,31.6946703 339.369408,31.6946703 L349.09503,31.6946703 C349.505973,31.6946703 349.859836,31.8310635 350.156629,32.1038538 C350.453422,32.3766442 350.601816,32.717627 350.601816,33.1268125 C350.510495,36.5366919 349.528811,39.4918764 347.656733,41.9924546 C345.784656,44.4930328 343.239126,46.4025366 340.020066,47.7210233 C336.801006,49.03951 333.159642,49.6987434 329.095864,49.6987434 Z M358.152871,49.016771 C357.787588,49.016771 357.456555,48.8690117 357.159762,48.5734889 C356.862969,48.277966 356.714575,47.9483493 356.714575,47.5846288 C356.714575,47.3118384 356.737405,47.1072487 356.783065,46.9708536 L372.741304,3.25641852 C373.197908,1.93793183 374.111103,1.27869837 375.480916,1.27869837 L386.165401,1.27869837 C387.535214,1.27869837 388.448409,1.93793183 388.905013,3.25641852 L404.863252,46.9708536 C404.908912,47.1072487 404.931742,47.3118384 404.931742,47.5846288 C404.931742,47.9483493 404.783348,48.277966 404.486555,48.5734889 C404.189762,48.8690117 403.858729,49.016771 403.493446,49.016771 L394.589708,49.016771 C393.493857,49.016771 392.717642,48.5166628 392.261038,47.5164315 L389.795387,40.9012986 L371.85093,40.9012986 L369.385279,47.5164315 C368.928675,48.5166628 368.15246,49.016771 367.056609,49.016771 L358.152871,49.016771 Z M374.727522,30.6717116 L386.918795,30.6717116 L380.823158,13.2814138 L374.727522,30.6717116 Z M415.701841,49.016771 C415.245237,49.016771 414.845714,48.8462796 414.503261,48.5052916 C414.160807,48.1643037 413.989583,47.7664904 413.989583,47.3118398 L413.989583,3.05182678 C413.989583,2.55171114 414.149393,2.13116566 414.469015,1.79017772 C414.788638,1.44918978 415.199576,1.27869837 415.701841,1.27869837 L434.536672,1.27869837 C440.563848,1.27869837 445.278216,2.64262966 448.679917,5.37053317 C452.081619,8.09843667 453.782444,11.9401765 453.782444,16.8958678 C453.782444,20.0784219 453.040474,22.7835523 451.55651,25.0113402 C450.072546,27.239128 448.029273,28.9667743 445.426628,30.1943309 L454.672818,46.8344591 C454.809799,47.1072494 454.878289,47.3573035 454.878289,47.5846288 C454.878289,47.9483493 454.74131,48.277966 454.467347,48.5734889 C454.193385,48.8690117 453.850937,49.016771 453.439993,49.016771 L443.782861,49.016771 C442.458709,49.016771 441.522684,48.4030019 440.974759,47.1754453 L433.440827,32.3766428 L426.865759,32.3766428 L426.865759,47.3118398 C426.865759,47.8119554 426.694535,48.2211348 426.352082,48.5393902 C426.009628,48.8576456 425.587276,49.016771 425.085011,49.016771 L415.701841,49.016771 Z M434.468181,22.3516476 C436.43158,22.3516476 437.926936,21.8629055 438.954296,20.8854068 C439.981655,19.907908 440.495327,18.5553428 440.495327,16.8276706 C440.495327,15.0999984 439.981655,13.7133349 438.954296,12.6676385 C437.926936,11.6219422 436.43158,11.0991019 434.468181,11.0991019 L426.865759,11.0991019 L426.865759,22.3516476 L434.468181,22.3516476 Z M467.155174,49.016771 C466.69857,49.016771 466.299047,48.8462796 465.956594,48.5052916 C465.614141,48.1643037 465.442917,47.7664904 465.442917,47.3118398 L465.442917,3.05182678 C465.442917,2.55171114 465.602726,2.13116566 465.922349,1.79017772 C466.241972,1.44918978 466.65291,1.27869837 467.155174,1.27869837 L486.537928,1.27869837 C492.473783,1.27869837 497.131076,2.61989748 500.509948,5.30233592 C503.888819,7.98477436 505.578229,11.9174429 505.578229,17.1004596 C505.578229,22.2834762 503.888819,26.1593143 500.509948,28.7280901 C497.131076,31.2968659 492.473783,32.5812345 486.537928,32.5812345 L478.730034,32.5812345 L478.730034,47.3118398 C478.730034,47.7664904 478.570225,48.1643037 478.250602,48.5052916 C477.930979,48.8462796 477.520041,49.016771 477.017777,49.016771 L467.155174,49.016771 Z M486.195476,22.8290283 C488.067554,22.8290283 489.54008,22.3402862 490.6131,21.3627875 C491.68612,20.3852887 492.222622,18.9417948 492.222622,17.0322623 C492.222622,15.2591251 491.73178,13.8269972 490.750081,12.7358358 C489.768382,11.6446744 488.250195,11.0991019 486.195476,11.0991019 L478.524563,11.0991019 L478.524563,22.8290283 L486.195476,22.8290283 Z M509.77326,49.016771 C509.407977,49.016771 509.076943,48.8690117 508.780151,48.5734889 C508.483358,48.277966 508.334964,47.9483493 508.334964,47.5846288 C508.334964,47.3118384 508.357794,47.1072487 508.403454,46.9708536 L524.361693,3.25641852 C524.818297,1.93793183 525.731492,1.27869837 527.101304,1.27869837 L537.78579,1.27869837 C539.155603,1.27869837 540.068798,1.93793183 540.525402,3.25641852 L556.483641,46.9708536 C556.529301,47.1072487 556.552131,47.3118384 556.552131,47.5846288 C556.552131,47.9483493 556.403737,48.277966 556.106944,48.5734889 C555.810151,48.8690117 555.479118,49.016771 555.113835,49.016771 L546.210096,49.016771 C545.114246,49.016771 544.338031,48.5166628 543.881426,47.5164315 L541.415776,40.9012986 L523.471319,40.9012986 L521.005668,47.5164315 C520.549064,48.5166628 519.772848,49.016771 518.676998,49.016771 L509.77326,49.016771 Z M526.347911,30.6717116 L538.539183,30.6717116 L532.443547,13.2814138 L526.347911,30.6717116 Z M567.32223,49.016771 C566.865625,49.016771 566.466103,48.8462796 566.123649,48.5052916 C565.781196,48.1643037 565.609972,47.7664904 565.609972,47.3118398 L565.609972,3.05182678 C565.609972,2.55171114 565.769781,2.13116566 566.089404,1.79017772 C566.409027,1.44918978 566.819965,1.27869837 567.32223,1.27869837 L586.157061,1.27869837 C592.184237,1.27869837 596.898605,2.64262966 600.300306,5.37053317 C603.702008,8.09843667 605.402833,11.9401765 605.402833,16.8958678 C605.402833,20.0784219 604.660862,22.7835523 603.176899,25.0113402 C601.692935,27.239128 599.649662,28.9667743 597.047017,30.1943309 L606.293207,46.8344591 C606.430188,47.1072494 606.498678,47.3573035 606.498678,47.5846288 C606.498678,47.9483493 606.361699,48.277966 606.087736,48.5734889 C605.813774,48.8690117 605.471326,49.016771 605.060382,49.016771 L595.40325,49.016771 C594.079098,49.016771 593.143073,48.4030019 592.595148,47.1754453 L585.061216,32.3766428 L578.486148,32.3766428 L578.486148,47.3118398 C578.486148,47.8119554 578.314924,48.2211348 577.97247,48.5393902 C577.630017,48.8576456 577.207665,49.016771 576.7054,49.016771 L567.32223,49.016771 Z M586.08857,22.3516476 C588.051968,22.3516476 589.547325,21.8629055 590.574685,20.8854068 C591.602044,19.907908 592.115716,18.5553428 592.115716,16.8276706 C592.115716,15.0999984 591.602044,13.7133349 590.574685,12.6676385 C589.547325,11.6219422 588.051968,11.0991019 586.08857,11.0991019 L578.486148,11.0991019 L578.486148,22.3516476 L586.08857,22.3516476 Z M628.912127,49.016771 C628.409862,49.016771 627.987509,48.8576456 627.645056,48.5393902 C627.302603,48.2211348 627.131379,47.8119554 627.131379,47.3118398 L627.131379,12.3948496 L615.077087,12.3948496 C614.574823,12.3948496 614.15247,12.2357242 613.810017,11.9174688 C613.467564,11.5992134 613.29634,11.190034 613.29634,10.6899184 L613.29634,3.05182678 C613.29634,2.55171114 613.467564,2.13116566 613.810017,1.79017772 C614.15247,1.44918978 614.574823,1.27869837 615.077087,1.27869837 L652.267317,1.27869837 C652.769582,1.27869837 653.191934,1.44918978 653.534387,1.79017772 C653.876841,2.13116566 654.048065,2.55171114 654.048065,3.05182678 L654.048065,10.6899184 C654.048065,11.190034 653.876841,11.5992134 653.534387,11.9174688 C653.191934,12.2357242 652.769582,12.3948496 652.267317,12.3948496 L640.213025,12.3948496 L640.213025,47.3118398 C640.213025,47.8119554 640.041801,48.2211348 639.699348,48.5393902 C639.356895,48.8576456 638.934542,49.016771 638.432278,49.016771 L628.912127,49.016771 Z M681.940737,49.6987434 C677.511676,49.6987434 673.744747,49.0622422 670.639838,47.7892205 C667.53493,46.5161989 665.183453,44.834017 663.585338,42.7426243 C661.987223,40.6512316 661.142518,38.3780128 661.051197,35.9228996 C661.051197,35.5137141 661.199591,35.1727313 661.496384,34.8999409 C661.793177,34.6271506 662.14704,34.4907574 662.557984,34.4907574 L671.667193,34.4907574 C672.215118,34.4907574 672.6603,34.5816862 673.002754,34.7635464 C673.345207,34.9454067 673.7219,35.2636573 674.132843,35.7183079 C674.726429,36.8094693 675.651039,37.7073907 676.9067,38.4120991 C678.162362,39.1168075 679.840357,39.4691564 681.940737,39.4691564 C684.4064,39.4691564 686.301279,39.0940753 687.625431,38.3439019 C688.949584,37.5937284 689.61165,36.5594139 689.61165,35.2409272 C689.61165,34.2861609 689.269202,33.5019004 688.584296,32.8881222 C687.899389,32.2743439 686.803555,31.7287713 685.296761,31.2513882 C683.789967,30.7740051 681.62113,30.2397987 678.790183,29.6487529 C673.265272,28.5575915 669.133066,26.8981418 666.39344,24.6703539 C663.653815,22.4425661 662.284023,19.2600597 662.284023,15.1227394 C662.284023,12.3039058 663.071653,9.79199901 664.646938,7.58694368 C666.222222,5.38188835 668.45955,3.66560814 671.358987,2.43805156 C674.258423,1.21049499 677.625829,0.596725907 681.461305,0.596725907 C685.479422,0.596725907 688.960977,1.29005765 691.906075,2.67674193 C694.851172,4.06342621 697.111329,5.79107251 698.686614,7.85973267 C700.261899,9.92839282 701.095189,11.9629237 701.18651,13.9633862 C701.18651,14.3725718 701.04953,14.7249207 700.775568,15.0204436 C700.501605,15.3159664 700.159157,15.4637257 699.748214,15.4637257 L690.159572,15.4637257 C689.155043,15.4637257 688.378827,15.0545463 687.830902,14.2361752 C687.55694,13.281409 686.849214,12.4744163 685.707703,11.815173 C684.566193,11.1559296 683.150741,10.8263129 681.461305,10.8263129 C679.543567,10.8263129 678.059626,11.1672957 677.009436,11.8492716 C675.959246,12.5312475 675.434159,13.5314637 675.434159,14.8499504 C675.434159,16.1684371 676.119055,17.2027517 677.488868,17.9529252 C678.858681,18.7030986 681.415626,19.4646269 685.159781,20.2375329 C689.451861,21.0104389 692.864926,21.9765569 695.39908,23.1359159 C697.933233,24.2952749 699.805283,25.7955993 701.015284,27.6369342 C702.225285,29.478269 702.830277,31.8083183 702.830277,34.6271519 C702.830277,37.7187759 701.939912,40.4011741 700.159155,42.674427 C698.378399,44.94768 695.912773,46.6866923 692.762203,47.8915164 C689.611634,49.0963404 686.004515,49.6987434 681.940737,49.6987434 Z" id="DoctorCarParts"></path></g>
                     <g fill="#35889a"> <path d="M9.31468001,98.0335419 C9.07210901,98.0335419 8.86592675,97.9490066 8.69612704,97.7799334 C8.52632734,97.6108602 8.44142876,97.4055602 8.44142876,97.164027 L8.44142876,77.2014143 L1.71011703,77.2014143 C1.46754603,77.2014143 1.26136377,77.1168789 1.09156406,76.9478058 C0.921764361,76.7787326 0.836865783,76.561356 0.836865783,76.2956696 L0.836865783,73.5784355 C0.836865783,73.3127491 0.915700177,73.0953726 1.07337133,72.9262994 C1.23104248,72.7572262 1.44328893,72.6726909 1.71011703,72.6726909 L20.3030916,72.6726909 C20.5699197,72.6726909 20.7882303,72.7572262 20.95803,72.9262994 C21.1278297,73.0953726 21.2127283,73.3127491 21.2127283,73.5784355 L21.2127283,76.2956696 C21.2127283,76.561356 21.1278297,76.7787326 20.95803,76.9478058 C20.7882303,77.1168789 20.5699197,77.2014143 20.3030916,77.2014143 L13.6081653,77.2014143 L13.6081653,97.164027 C13.6081653,97.4055602 13.5293309,97.6108602 13.3716598,97.7799334 C13.2139886,97.9490066 13.0017422,98.0335419 12.7349141,98.0335419 L9.31468001,98.0335419 Z M29.3994588,98.0335419 C29.1568878,98.0335419 28.9507055,97.9490066 28.7809058,97.7799334 C28.6111061,97.6108602 28.5262075,97.4055602 28.5262075,97.164027 L28.5262075,73.5784355 C28.5262075,73.3127491 28.6050419,73.0953726 28.7627131,72.9262994 C28.9203842,72.7572262 29.1326307,72.6726909 29.3994588,72.6726909 L38.8232952,72.6726909 C41.8069186,72.6726909 44.1416295,73.3610499 45.827498,74.7377887 C47.5133664,76.1145275 48.356288,78.0709165 48.356288,80.6070143 C48.356288,82.3702061 47.9317952,83.8495742 47.0827966,85.0451632 C46.2337981,86.2407522 45.045218,87.1042201 43.5170207,87.635593 L48.7929137,96.8741887 C48.865685,97.0191086 48.9020701,97.1519498 48.9020701,97.2727164 C48.9020701,97.4900962 48.8232357,97.6712433 48.6655645,97.8161632 C48.5078934,97.9610831 48.332032,98.0335419 48.1379752,98.0335419 L44.7905121,98.0335419 C44.4023985,98.0335419 44.0991893,97.9429684 43.8808754,97.7618185 C43.6625615,97.5806687 43.4685076,97.3451774 43.2987079,97.0553377 L38.6413679,88.4688781 L33.6565586,88.4688781 L33.6565586,97.164027 C33.6565586,97.4055602 33.5716601,97.6108602 33.4018604,97.7799334 C33.2320607,97.9490066 33.01375,98.0335419 32.7469219,98.0335419 L29.3994588,98.0335419 Z M38.7141388,84.3386824 C40.1695648,84.3386824 41.261118,84.0186558 41.988831,83.378593 C42.716544,82.7385302 43.0803951,81.8026034 43.0803951,80.5707845 C43.0803951,79.3389656 42.716544,78.3909623 41.988831,77.7267462 C41.261118,77.0625301 40.1695648,76.730427 38.7141388,76.730427 L33.6565586,76.730427 L33.6565586,84.3386824 L38.7141388,84.3386824 Z M57.5618117,98.0335419 C57.3192406,98.0335419 57.1130584,97.9490066 56.9432587,97.7799334 C56.773459,97.6108602 56.6885604,97.4055602 56.6885604,97.164027 L56.6885604,73.5784355 C56.6885604,73.3127491 56.7673948,73.0953726 56.9250659,72.9262994 C57.0827371,72.7572262 57.2949835,72.6726909 57.5618117,72.6726909 L73.6078034,72.6726909 C73.8746315,72.6726909 74.0929421,72.7572262 74.2627418,72.9262994 C74.4325415,73.0953726 74.5174401,73.3127491 74.5174401,73.5784355 L74.5174401,76.0058313 C74.5174401,76.2715177 74.4325415,76.482856 74.2627418,76.6398526 C74.0929421,76.7968491 73.8746315,76.8753462 73.6078034,76.8753462 L61.6733696,76.8753462 L61.6733696,83.2155589 L72.8073231,83.2155589 C73.0741512,83.2155589 73.2924618,83.3000943 73.4622615,83.4691675 C73.6320612,83.6382406 73.7169598,83.8556172 73.7169598,84.1213036 L73.7169598,86.4037802 C73.7169598,86.6694667 73.6320612,86.880805 73.4622615,87.0378015 C73.2924618,87.194798 73.0741512,87.2732951 72.8073231,87.2732951 L61.6733696,87.2732951 L61.6733696,93.8308866 L73.8988871,93.8308866 C74.1657153,93.8308866 74.3840259,93.9093837 74.5538256,94.0663802 C74.7236253,94.2233768 74.8085239,94.4347151 74.8085239,94.7004015 L74.8085239,97.164027 C74.8085239,97.4297135 74.7236253,97.6410518 74.5538256,97.7980483 C74.3840259,97.9550448 74.1657153,98.0335419 73.8988871,98.0335419 L57.5618117,98.0335419 Z M81.4306792,98.0335419 C81.2123653,98.0335419 81.0304398,97.9610831 80.8848972,97.8161632 C80.7393546,97.6712433 80.6665843,97.4900962 80.6665843,97.2727164 L80.7393553,96.9466483 L89.4718678,73.5784355 C89.7144388,72.9746027 90.1510601,72.6726909 90.7817447,72.6726909 L94.7841462,72.6726909 C95.4148309,72.6726909 95.8514521,72.9746027 96.0940231,73.5784355 L104.826536,96.9466483 L104.899307,97.2727164 C104.899307,97.4900962 104.820472,97.6712433 104.662801,97.8161632 C104.50513,97.9610831 104.329269,98.0335419 104.135212,98.0335419 L100.896905,98.0335419 C100.387506,98.0335419 100.035783,97.8040889 99.8417264,97.345176 L98.1679948,92.9613717 L87.3978961,92.9613717 L85.7241645,97.345176 C85.5301077,97.8040889 85.178385,98.0335419 84.6689859,98.0335419 L81.4306792,98.0335419 Z M88.6713875,88.7587164 L96.8945034,88.7587164 L92.7829455,77.5999419 L88.6713875,88.7587164 Z M115.705791,98.0335419 C115.46322,98.0335419 115.257038,97.9490066 115.087238,97.7799334 C114.917438,97.6108602 114.83254,97.4055602 114.83254,97.164027 L114.83254,77.2014143 L108.101228,77.2014143 C107.858657,77.2014143 107.652475,77.1168789 107.482675,76.9478058 C107.312875,76.7787326 107.227977,76.561356 107.227977,76.2956696 L107.227977,73.5784355 C107.227977,73.3127491 107.306811,73.0953726 107.464482,72.9262994 C107.622153,72.7572262 107.8344,72.6726909 108.101228,72.6726909 L126.694202,72.6726909 C126.96103,72.6726909 127.179341,72.7572262 127.349141,72.9262994 C127.518941,73.0953726 127.603839,73.3127491 127.603839,73.5784355 L127.603839,76.2956696 C127.603839,76.561356 127.518941,76.7787326 127.349141,76.9478058 C127.179341,77.1168789 126.96103,77.2014143 126.694202,77.2014143 L119.999276,77.2014143 L119.999276,97.164027 C119.999276,97.4055602 119.920442,97.6108602 119.762771,97.7799334 C119.605099,97.9490066 119.392853,98.0335419 119.126025,98.0335419 L115.705791,98.0335419 Z M135.79057,98.0335419 C135.547999,98.0335419 135.341816,97.9490066 135.172017,97.7799334 C135.002217,97.6108602 134.917318,97.4055602 134.917318,97.164027 L134.917318,73.5422058 C134.917318,73.2765193 135.002217,73.065181 135.172017,72.9081845 C135.341816,72.751188 135.547999,72.6726909 135.79057,72.6726909 L139.283575,72.6726909 C139.550403,72.6726909 139.762649,72.751188 139.92032,72.9081845 C140.077991,73.065181 140.156826,73.2765193 140.156826,73.5422058 L140.156826,97.164027 C140.156826,97.4055602 140.077991,97.6108602 139.92032,97.7799334 C139.762649,97.9490066 139.550403,98.0335419 139.283575,98.0335419 L135.79057,98.0335419 Z M150.344757,98.0335419 C150.102186,98.0335419 149.896004,97.9490066 149.726204,97.7799334 C149.556404,97.6108602 149.471506,97.4055602 149.471506,97.164027 L149.471506,73.5784355 C149.471506,73.3127491 149.55034,73.0953726 149.708011,72.9262994 C149.865683,72.7572262 150.077929,72.6726909 150.344757,72.6726909 L153.182824,72.6726909 C153.643709,72.6726909 153.995431,72.8779909 154.238002,73.2885972 L164.644246,89.3746228 L164.644246,73.5784355 C164.644246,73.3127491 164.723081,73.0953726 164.880752,72.9262994 C165.038423,72.7572262 165.250669,72.6726909 165.517498,72.6726909 L168.646648,72.6726909 C168.913476,72.6726909 169.131787,72.7572262 169.301586,72.9262994 C169.471386,73.0953726 169.556285,73.3127491 169.556285,73.5784355 L169.556285,97.1277972 C169.556285,97.3934837 169.471386,97.6108602 169.301586,97.7799334 C169.131787,97.9490066 168.925604,98.0335419 168.683033,98.0335419 L165.808581,98.0335419 C165.323439,98.0335419 164.959588,97.8282419 164.717017,97.4176355 L154.347159,81.6939079 L154.347159,97.164027 C154.347159,97.4055602 154.268324,97.6108602 154.110653,97.7799334 C153.952982,97.9490066 153.740736,98.0335419 153.473907,98.0335419 L150.344757,98.0335419 Z M188.767812,98.3958398 C185.420332,98.3958398 182.818797,97.5384101 180.963129,95.8235249 C179.107461,94.1086397 178.118999,91.7174977 177.997713,88.650027 C177.973456,87.949581 177.961328,86.8264688 177.961328,85.2806568 C177.961328,83.7348448 177.973456,82.6117327 177.997713,81.9112866 C178.094742,78.9162759 179.089268,76.5674015 180.981322,74.864593 C182.873376,73.1617845 185.468846,72.310393 188.767812,72.310393 C190.999465,72.310393 192.921812,72.690802 194.534909,73.4516313 C196.148006,74.2124606 197.366907,75.1544257 198.191649,76.2775547 C199.01639,77.4006837 199.453011,78.5056812 199.501525,79.5925802 C199.501525,79.80996 199.428755,79.9911072 199.283213,80.136027 C199.13767,80.2809469 198.943616,80.3534058 198.701045,80.3534058 L194.880571,80.3534058 C194.638,80.3534058 194.456074,80.3050999 194.334789,80.2084866 C194.213503,80.1118734 194.104348,79.9548792 194.00732,79.7374994 C193.66772,78.8438268 193.07343,78.0830089 192.224432,77.4550228 C191.375433,76.8270367 190.223238,76.5130483 188.767812,76.5130483 C187.069815,76.5130483 185.741759,76.9659161 184.783603,77.8716653 C183.825448,78.7774145 183.322121,80.1843239 183.273606,82.0924355 C183.249349,82.7928816 183.237221,83.8556114 183.237221,85.2806568 C183.237221,86.6815489 183.249349,87.7442787 183.273606,88.4688781 C183.322121,90.4252964 183.831512,91.8684352 184.801796,92.7983377 C185.77208,93.7282402 187.106201,94.1931845 188.804198,94.1931845 C190.526452,94.1931845 191.909086,93.7342784 192.952141,92.8164526 C193.995196,91.8986267 194.516716,90.5219086 194.516716,88.6862568 L194.516716,87.5631334 L190.077689,87.5631334 C189.835118,87.5631334 189.628936,87.4785981 189.459136,87.3095249 C189.289336,87.1404517 189.204438,86.9351516 189.204438,86.6936185 L189.204438,84.7009802 C189.204438,84.4594471 189.289336,84.254147 189.459136,84.0850738 C189.628936,83.9160007 189.835118,83.8314653 190.077689,83.8314653 L198.810202,83.8314653 C199.07703,83.8314653 199.29534,83.9160007 199.46514,84.0850738 C199.63494,84.254147 199.719838,84.4594471 199.719838,84.7009802 L199.719838,88.5413377 C199.719838,90.5460626 199.271089,92.2911132 198.373576,93.7765419 C197.476063,95.2619706 196.202585,96.4031975 194.553102,97.2002568 C192.903619,97.9973161 190.975208,98.3958398 188.767812,98.3958398 Z M226.426772,98.0335419 C226.184201,98.0335419 225.978019,97.9490066 225.808219,97.7799334 C225.63842,97.6108602 225.553521,97.4055602 225.553521,97.164027 L225.553521,89.0123249 L216.930165,73.8320441 C216.857394,73.6146642 216.821009,73.481823 216.821009,73.4335164 C216.821009,73.2161366 216.899843,73.0349895 217.057514,72.8900696 C217.215185,72.7451497 217.391047,72.6726909 217.585103,72.6726909 L220.859796,72.6726909 C221.320681,72.6726909 221.69666,72.9021439 221.987745,73.3610568 L228.100504,83.8676951 L234.249648,73.3610568 C234.346677,73.1919836 234.486153,73.0349895 234.668081,72.8900696 C234.850009,72.7451497 235.074384,72.6726909 235.341212,72.6726909 L238.615904,72.6726909 C238.834218,72.6726909 239.016144,72.7451497 239.161686,72.8900696 C239.307229,73.0349895 239.379999,73.2161366 239.379999,73.4335164 C239.379999,73.5784363 239.343614,73.7112775 239.270843,73.8320441 L230.683872,89.0123249 L230.683872,97.164027 C230.683872,97.4297135 230.598974,97.6410518 230.429174,97.7980483 C230.259374,97.9550448 230.041064,98.0335419 229.774236,98.0335419 L226.426772,98.0335419 Z M255.389606,98.3958398 C252.066383,98.3958398 249.48304,97.562563 247.639501,95.8959845 C245.795961,94.2294059 244.825692,91.7537286 244.728663,88.4688781 C244.704406,87.768432 244.692278,86.7419317 244.692278,85.3893462 C244.692278,84.0126074 244.704406,82.9740305 244.728663,82.2735845 C244.825692,79.061194 245.820218,76.5975931 247.712272,74.8827079 C249.604325,73.1678227 252.163411,72.310393 255.389606,72.310393 C258.591543,72.310393 261.144564,73.1678227 263.048747,74.8827079 C264.952929,76.5975931 265.95352,79.061194 266.050548,82.2735845 C266.099062,83.6744766 266.123319,84.7130534 266.123319,85.3893462 C266.123319,86.0414856 266.099062,87.067986 266.050548,88.4688781 C265.95352,91.7537286 264.977186,94.2294059 263.121518,95.8959845 C261.265849,97.562563 258.688571,98.3958398 255.389606,98.3958398 Z M255.389606,94.1931845 C257.014831,94.1931845 258.300438,93.7101255 259.246465,92.743993 C260.192492,91.7778605 260.701884,90.2924541 260.774655,88.2877292 C260.823169,86.8385304 260.847426,85.860336 260.847426,85.3531164 C260.847426,84.7975902 260.823169,83.8193957 260.774655,82.4185036 C260.701884,80.437932 260.180364,78.9585638 259.21008,77.9803547 C258.239796,77.0021455 256.966317,76.5130483 255.389606,76.5130483 C253.788637,76.5130483 252.50303,77.0021455 251.532746,77.9803547 C250.562462,78.9585638 250.05307,80.437932 250.004556,82.4185036 C249.980299,83.1189497 249.968171,84.0971442 249.968171,85.3531164 C249.968171,86.5849353 249.980299,87.5631298 250.004556,88.2877292 C250.05307,90.2683008 250.556398,91.747669 251.514553,92.7258781 C252.472709,93.7040872 253.76438,94.1931845 255.389606,94.1931845 Z M284.679908,98.3958398 C281.380942,98.3958398 278.821857,97.562563 277.002574,95.8959845 C275.183291,94.2294059 274.273664,91.7054227 274.273664,88.3239589 L274.273664,73.5784355 C274.273664,73.3127491 274.352498,73.0953726 274.510169,72.9262994 C274.667841,72.7572262 274.880087,72.6726909 275.146915,72.6726909 L278.494378,72.6726909 C278.761206,72.6726909 278.979517,72.7572262 279.149317,72.9262994 C279.319116,73.0953726 279.404015,73.3127491 279.404015,73.5784355 L279.404015,88.3239589 C279.404015,90.2320706 279.858829,91.6691711 280.76847,92.6353036 C281.678111,93.6014361 282.969783,94.0844951 284.643522,94.0844951 C286.317262,94.0844951 287.608934,93.6014361 288.518575,92.6353036 C289.428216,91.6691711 289.88303,90.2320706 289.88303,88.3239589 L289.88303,73.5784355 C289.88303,73.3127491 289.967929,73.0953726 290.137728,72.9262994 C290.307528,72.7572262 290.525839,72.6726909 290.792667,72.6726909 L294.14013,72.6726909 C294.406958,72.6726909 294.619204,72.7572262 294.776876,72.9262994 C294.934547,73.0953726 295.013381,73.3127491 295.013381,73.5784355 L295.013381,88.3239589 C295.013381,91.7054227 294.109818,94.2294059 292.302664,95.8959845 C290.49551,97.562563 287.954617,98.3958398 284.679908,98.3958398 Z M304.983,98.0335419 C304.740429,98.0335419 304.534246,97.9490066 304.364447,97.7799334 C304.194647,97.6108602 304.109748,97.4055602 304.109748,97.164027 L304.109748,73.5784355 C304.109748,73.3127491 304.188583,73.0953726 304.346254,72.9262994 C304.503925,72.7572262 304.716171,72.6726909 304.983,72.6726909 L314.406836,72.6726909 C317.390459,72.6726909 319.72517,73.3610499 321.411039,74.7377887 C323.096907,76.1145275 323.939829,78.0709165 323.939829,80.6070143 C323.939829,82.3702061 323.515336,83.8495742 322.666337,85.0451632 C321.817339,86.2407522 320.628759,87.1042201 319.100561,87.635593 L324.376454,96.8741887 C324.449226,97.0191086 324.485611,97.1519498 324.485611,97.2727164 C324.485611,97.4900962 324.406776,97.6712433 324.249105,97.8161632 C324.091434,97.9610831 323.915573,98.0335419 323.721516,98.0335419 L320.374053,98.0335419 C319.985939,98.0335419 319.68273,97.9429684 319.464416,97.7618185 C319.246102,97.5806687 319.052048,97.3451774 318.882249,97.0553377 L314.224909,88.4688781 L309.240099,88.4688781 L309.240099,97.164027 C309.240099,97.4055602 309.155201,97.6108602 308.985401,97.7799334 C308.815601,97.9490066 308.597291,98.0335419 308.330463,98.0335419 L304.983,98.0335419 Z M314.29768,84.3386824 C315.753106,84.3386824 316.844659,84.0186558 317.572372,83.378593 C318.300085,82.7385302 318.663936,81.8026034 318.663936,80.5707845 C318.663936,79.3389656 318.300085,78.3909623 317.572372,77.7267462 C316.844659,77.0625301 315.753106,76.730427 314.29768,76.730427 L309.240099,76.730427 L309.240099,84.3386824 L314.29768,84.3386824 Z M354.030611,98.3958398 C350.683132,98.3958398 348.093725,97.5444483 346.262314,95.8416398 C344.430903,94.1388313 343.454569,91.7174981 343.333284,88.5775675 C343.309027,87.925428 343.296898,86.8626982 343.296898,85.3893462 C343.296898,83.8918408 343.309027,82.8049581 343.333284,82.1286653 C343.454569,79.0370414 344.436967,76.6277846 346.280507,74.9008228 C348.124046,73.173861 350.707389,72.310393 354.030611,72.310393 C356.189493,72.310393 358.069391,72.6787255 359.670359,73.4154015 C361.271328,74.1520775 362.514486,75.1604632 363.39987,76.4405887 C364.285254,77.7207143 364.752196,79.1578148 364.80071,80.7519334 L364.80071,80.824393 C364.80071,81.0176195 364.721876,81.1806519 364.564205,81.3134951 C364.406534,81.4463383 364.230672,81.5127589 364.036615,81.5127589 L360.507225,81.5127589 C360.21614,81.5127589 359.997829,81.4463383 359.852286,81.3134951 C359.706744,81.1806519 359.58546,80.9451606 359.488432,80.6070143 C359.124575,79.1095089 358.4939,78.0528173 357.596387,77.4369079 C356.698875,76.8209984 355.510295,76.5130483 354.030611,76.5130483 C350.561846,76.5130483 348.754719,78.4452843 348.609177,82.3098143 C348.58492,82.9619537 348.572791,83.9643011 348.572791,85.3168866 C348.572791,86.6694721 348.58492,87.6959725 348.609177,88.3964185 C348.754719,92.2609485 350.561846,94.1931845 354.030611,94.1931845 C355.486038,94.1931845 356.668553,93.8852344 357.578195,93.2693249 C358.487836,92.6534154 359.124575,91.5967239 359.488432,90.0992185 C359.58546,89.7610722 359.706744,89.5255809 359.852286,89.3927377 C359.997829,89.2598945 360.21614,89.1934738 360.507225,89.1934738 L364.036615,89.1934738 C364.254929,89.1934738 364.442919,89.2659327 364.60059,89.4108526 C364.758261,89.5557724 364.824967,89.7369196 364.80071,89.9542994 C364.752196,91.548418 364.285254,92.9855185 363.39987,94.2656441 C362.514486,95.5457696 361.271328,96.5541553 359.670359,97.2908313 C358.069391,98.0275073 356.189493,98.3958398 354.030611,98.3958398 Z M370.913469,98.0335419 C370.695155,98.0335419 370.51323,97.9610831 370.367687,97.8161632 C370.222144,97.6712433 370.149374,97.4900962 370.149374,97.2727164 L370.222145,96.9466483 L378.954658,73.5784355 C379.197229,72.9746027 379.63385,72.6726909 380.264534,72.6726909 L384.266936,72.6726909 C384.897621,72.6726909 385.334242,72.9746027 385.576813,73.5784355 L394.309325,96.9466483 L394.382096,97.2727164 C394.382096,97.4900962 394.303262,97.6712433 394.145591,97.8161632 C393.98792,97.9610831 393.812058,98.0335419 393.618002,98.0335419 L390.379695,98.0335419 C389.870296,98.0335419 389.518573,97.8040889 389.324516,97.345176 L387.650785,92.9613717 L376.880686,92.9613717 L375.206954,97.345176 C375.012898,97.8040889 374.661175,98.0335419 374.151776,98.0335419 L370.913469,98.0335419 Z M378.154177,88.7587164 L386.377293,88.7587164 L382.265735,77.5999419 L378.154177,88.7587164 Z M402.241358,98.0335419 C401.998787,98.0335419 401.792604,97.9490066 401.622805,97.7799334 C401.453005,97.6108602 401.368106,97.4055602 401.368106,97.164027 L401.368106,73.5784355 C401.368106,73.3127491 401.446941,73.0953726 401.604612,72.9262994 C401.762283,72.7572262 401.97453,72.6726909 402.241358,72.6726909 L411.665194,72.6726909 C414.648817,72.6726909 416.983528,73.3610499 418.669397,74.7377887 C420.355265,76.1145275 421.198187,78.0709165 421.198187,80.6070143 C421.198187,82.3702061 420.773694,83.8495742 419.924695,85.0451632 C419.075697,86.2407522 417.887117,87.1042201 416.35892,87.635593 L421.634813,96.8741887 C421.707584,97.0191086 421.743969,97.1519498 421.743969,97.2727164 C421.743969,97.4900962 421.665135,97.6712433 421.507463,97.8161632 C421.349792,97.9610831 421.173931,98.0335419 420.979874,98.0335419 L417.632411,98.0335419 C417.244297,98.0335419 416.941088,97.9429684 416.722774,97.7618185 C416.50446,97.5806687 416.310406,97.3451774 416.140607,97.0553377 L411.483267,88.4688781 L406.498457,88.4688781 L406.498457,97.164027 C406.498457,97.4055602 406.413559,97.6108602 406.243759,97.7799334 C406.07396,97.9490066 405.855649,98.0335419 405.588821,98.0335419 L402.241358,98.0335419 Z M411.556038,84.3386824 C413.011464,84.3386824 414.103017,84.0186558 414.83073,83.378593 C415.558443,82.7385302 415.922294,81.8026034 415.922294,80.5707845 C415.922294,79.3389656 415.558443,78.3909623 414.83073,77.7267462 C414.103017,77.0625301 413.011464,76.730427 411.556038,76.730427 L406.498457,76.730427 L406.498457,84.3386824 L411.556038,84.3386824 Z" id="Treating-your-car" opacity="0.7"></path></g>
                </g>
                <g id="Group">
                    <polygon id="Rectangle-4" fill="#4B9CA9" points="0 0 51.3191489 23.2604167 51.3191489 51.3333333 0 28.0729167"></polygon>
                    <polygon id="Rectangle-4" fill="#4B9CA9" points="100.5 0 151.819149 23.2604167 151.819149 51.3333333 100.5 28.0729167"></polygon>
                    <polygon id="Rectangle-4" fill="#3C7C8C" transform="translate(76.978723, 25.666667) scale(-1, 1) translate(-76.978723, -25.666667) " points="51.3191489 0 102.638298 23.2604167 102.638298 51.3333333 51.3191489 28.0729167"></polygon>
                    <polygon id="Rectangle-4" fill="#3C7C8C" transform="translate(175.340426, 25.666667) scale(-1, 1) translate(-175.340426, -25.666667) " points="149.680851 0 201 23.2604167 201 51.3333333 149.680851 28.0729167"></polygon>
                    <polygon id="Rectangle-4" fill="#4B9CA9" points="0 51.3333333 51.3191489 74.59375 51.3191489 102.666667 0 79.40625"></polygon>
                    <polygon id="Rectangle-4" fill="#4B9CA9" points="100.5 51.3333333 151.819149 74.59375 151.819149 102.666667 100.5 79.40625"></polygon>
                    <polygon id="Rectangle-4" fill="#3C7C8C" transform="translate(76.978723, 77.000000) scale(-1, 1) translate(-76.978723, -77.000000) " points="51.3191489 51.3333333 102.638298 74.59375 102.638298 102.666667 51.3191489 79.40625"></polygon>
                    <polygon id="Rectangle-4" fill="#3C7C8C" transform="translate(175.340426, 77.000000) scale(-1, 1) translate(-175.340426, -77.000000) " points="149.680851 51.3333333 201 74.59375 201 102.666667 149.680851 79.40625"></polygon>
                    <polygon id="Rectangle-4" fill="#4B9CA9" points="0 102.666667 51.3191489 125.927083 51.3191489 154 0 130.739583"></polygon>
                    <polygon id="Rectangle-4" fill="#4B9CA9" points="100.5 102.666667 151.819149 125.927083 151.819149 154 100.5 130.739583"></polygon>
                    <polygon id="Rectangle-4" fill="#3C7C8C" transform="translate(76.978723, 128.333333) scale(-1, 1) translate(-76.978723, -128.333333) " points="51.3191489 102.666667 102.638298 125.927083 102.638298 154 51.3191489 130.739583"></polygon>
                    <polygon id="Rectangle-4" fill="#3C7C8C" transform="translate(175.340426, 128.333333) scale(-1, 1) translate(-175.340426, -128.333333) " points="149.680851 102.666667 201 125.927083 201 154 149.680851 130.739583"></polygon>
                </g>
            </g>
        </g>
    </g>
</svg>