<?xml version="1.0" encoding="utf-8"?>
<!-- Generator: Adobe Illustrator 15.1.0, SVG Export Plug-In . SVG Version: 6.00 Build 0)  -->
<!DOCTYPE svg PUBLIC "-//W3C//DTD SVG 1.1//EN" "http://www.w3.org/Graphics/SVG/1.1/DTD/svg11.dtd">
<svg version="1.1" id="Layer_1" xmlns="http://www.w3.org/2000/svg" xmlns:xlink="http://www.w3.org/1999/xlink" x="0px" y="0px"
	 width="723px" height="114px" viewBox="0 0 723 114" enable-background="new 0 0 723 114" xml:space="preserve">
<g>
	<path fill="#FF0000" d="M638.725,75.446h-60.04c-10.645,0-19.276,8.63-19.276,19.276c0,10.646,8.631,19.277,19.276,19.277h46.403
		L638.725,75.446z"/>
	<path fill="#FF0000" d="M675.364,75.446h-16.221h-5.049h-1.538L638.92,114h3.264h33.181c10.646,0,19.276-8.632,19.276-19.277
		C694.64,84.076,686.01,75.446,675.364,75.446z"/>
</g>
<polygon fill="#50A727" points="60.358,104.819 79.611,71.512 76.062,65.381 68.097,51.593 68.094,51.593 57.186,70.458 
	48.843,84.889 38.747,84.889 51.765,62.37 64.782,39.849 77.803,62.374 90.82,84.889 75.481,84.896 63.963,104.819 64.784,104.819 
	125.371,104.819 95.079,52.411 64.784,0 34.493,52.407 4.198,104.819 "/>
<path fill="#50A727" d="M97.365,13.694c-8.196-4.728-16.997-7.462-25.842-8.359l14.313,24.757c0.521,0.278,1.044,0.558,1.558,0.854
	c14.929,8.613,23.046,24.542,22.436,40.659l14.316,24.763C137.647,66.395,126.479,30.485,97.365,13.694"/>
<path fill="#50A727" d="M8.707,37.427C-2.032,56-2.518,77.682,5.491,95.919l14.486-25.051c-0.193-7.975,1.725-16.09,6.001-23.483
	c4.273-7.389,10.348-13.109,17.355-16.924L57.819,5.402C37.991,7.596,19.44,18.852,8.707,37.427"/>
<g>
	<path fill="#50A727" d="M151.818,108.099c-1.709,4.274-3.167,5.901-6.417,5.901c-0.857,0-1.711-0.086-2.526-0.385v-3.335
		c0.685,0.214,1.411,0.512,2.139,0.512c1.499,0,2.311-0.686,2.998-2.015l1.495-3.761l-8.773-21.999h4.108l6.464,18.104h0.086
		l6.203-18.104h3.85L151.818,108.099z"/>
	<path fill="#50A727" d="M168.077,102.018h7.787c2.311,0,3.723-1.323,3.723-3.461c0-2.056-1.369-3.51-4.363-3.51h-7.147V102.018
		L168.077,102.018z M174.666,91.965c2.783,0,3.938-1.025,3.938-2.953c0-1.838-1.155-2.866-4.064-2.866h-6.461v5.819H174.666z
		 M164.525,83.018h10.227c4.965,0,7.534,1.675,7.534,5.396c0,2.351-1.157,3.848-3.212,4.791v0.039
		c2.655,0.727,4.194,2.441,4.194,5.394c0,3.764-2.78,6.504-6.719,6.504h-12.024L164.525,83.018L164.525,83.018z"/>
	<path fill="#50A727" d="M202.862,91.965c-0.214-3.465-2.735-6.247-6.374-6.247c-3.764,0-6.118,2.822-6.333,6.247H202.862z
		 M206.374,98.126c-0.985,4.921-4.452,7.531-9.458,7.531c-7.058,0-10.397-4.921-10.61-11.639c0-6.675,4.364-11.513,10.4-11.513
		c7.826,0,10.223,7.317,10.011,12.669h-16.562c-0.126,3.848,2.055,7.274,6.887,7.274c3.04,0,5.095-1.414,5.738-4.323H206.374z"/>
	<path fill="#50A727" d="M220.875,85.718c-4.918,0-6.763,4.238-6.763,8.345c0,4.323,1.972,8.385,6.978,8.385
		c4.963,0,6.631-4.239,6.631-8.558C227.723,89.739,225.582,85.718,220.875,85.718 M210.609,83.018h3.636v2.997h0.085
		c1.198-2.437,3.98-3.509,7.06-3.509c6.802,0,10.185,5.393,10.185,11.641c0,6.29-3.34,11.511-10.098,11.511
		c-2.229,0-5.567-0.856-7.147-3.468h-0.085v11.426h-3.636V83.018z"/>
	<path fill="#50A727" d="M251.215,91.965c-0.214-3.465-2.736-6.247-6.377-6.247c-3.762,0-6.115,2.822-6.332,6.247H251.215z
		 M254.723,98.126c-0.985,4.921-4.45,7.531-9.458,7.531c-7.058,0-10.396-4.921-10.614-11.639c0-6.675,4.368-11.513,10.404-11.513
		c7.833,0,10.226,7.317,10.013,12.669h-16.562c-0.128,3.848,2.052,7.274,6.892,7.274c3.034,0,5.089-1.414,5.729-4.323H254.723z"/>
	<polygon fill="#50A727" points="258.829,105.145 258.829,83.018 262.469,83.018 262.469,91.838 273.506,91.838 273.506,83.018 
		277.144,83.018 277.144,105.145 273.506,105.145 273.506,95.045 262.469,95.045 262.469,105.145 	"/>
	<polygon fill="#50A727" points="282.619,105.145 282.619,83.018 286.26,83.018 286.26,91.838 297.296,91.838 297.296,83.018 
		300.932,83.018 300.932,105.145 297.296,105.145 297.296,95.045 286.26,95.045 286.26,105.145 	"/>
	<path fill="#50A727" d="M315.95,102.449c3.808,0,6.888-2.999,6.888-8.35c0-5.345-3.08-8.384-6.888-8.384
		c-3.812,0-6.892,3.038-6.892,8.384C309.059,99.45,312.139,102.449,315.95,102.449 M315.95,82.508
		c7.02,0,10.737,5.093,10.737,11.595c0,6.46-3.718,11.556-10.737,11.556c-7.02,0-10.739-5.094-10.739-11.556
		C305.211,87.601,308.93,82.508,315.95,82.508"/>
	<path fill="#50A727" d="M350.951,82.51c5.178,0,8.261,2.436,8.261,6.247c0,2.311-1.415,3.677-3.637,4.45v0.087
		c2.565,0.727,4.362,2.351,4.362,5.347c0,4.535-4.149,7.017-9.371,7.017c-6.16,0-9.109-2.78-9.371-7.491h3.681
		c0.214,3.083,2.439,4.536,5.691,4.536c3.298,0,5.604-1.453,5.604-3.976c0-2.14-1.327-3.599-4.705-3.599h-3.038v-3.122h2.442
		c2.564,0,4.661-0.642,4.661-3.082c0-2.054-1.625-3.466-4.62-3.466c-2.78,0-5.176,0.986-5.562,3.98h-3.684
		C342.092,84.346,346.373,82.51,350.951,82.51"/>
	<path fill="#50A727" d="M377.951,93.719c-2.824,2.098-11.037,0.042-11.037,5.477c0,2.396,2.054,3.254,4.28,3.254
		c4.79,0,6.757-2.954,6.757-5.008V93.719z M383.857,105.059c-0.641,0.384-1.541,0.599-2.609,0.599c-1.886,0-3.081-1.025-3.081-3.425
		c-2.012,2.399-4.706,3.425-7.787,3.425c-4.022,0-7.32-1.755-7.32-6.207c0-5.002,3.724-6.116,7.489-6.801
		c3.979-0.813,7.447-0.472,7.447-3.253c0-3.21-2.656-3.679-4.921-3.679c-3.081,0-5.347,0.941-5.522,4.191h-3.637
		c0.217-5.478,4.408-7.401,9.371-7.401c3.979,0,8.302,0.896,8.302,6.078v11.378c0,1.715,0,2.485,1.154,2.485
		c0.343,0,0.728-0.088,1.114-0.217V105.059z"/>
	<path fill="#50A727" d="M409.524,85.718c-4.916,0-6.756,4.238-6.756,8.345c0,4.323,1.968,8.385,6.974,8.385
		c4.967,0,6.635-4.239,6.635-8.558C416.376,89.739,414.233,85.718,409.524,85.718 M399.258,83.018h3.64v2.997h0.085
		c1.199-2.437,3.977-3.509,7.061-3.509c6.804,0,10.185,5.393,10.185,11.641c0,6.29-3.341,11.511-10.101,11.511
		c-2.227,0-5.566-0.856-7.146-3.468h-0.084v11.426h-3.64L399.258,83.018L399.258,83.018z"/>
	<path fill="#50A727" d="M432.679,108.099c-1.713,4.274-3.167,5.901-6.421,5.901c-0.854,0-1.711-0.086-2.523-0.385v-3.335
		c0.681,0.214,1.409,0.512,2.137,0.512c1.497,0,2.312-0.686,2.996-2.015l1.497-3.761l-8.771-21.999h4.107l6.461,18.104h0.086
		l6.203-18.104h3.852L432.679,108.099z"/>
	<path fill="#50A727" d="M461.473,105.145h-3.64V86.229h-7.998l-0.474,11.809c-0.214,5.479-2.648,7.575-5.904,7.575
		c-1.069,0-1.839-0.174-2.525-0.469v-2.999c0.685,0.261,1.285,0.347,1.841,0.347c1.626,0,2.911-0.898,3.038-4.88l0.516-14.595
		h15.145v22.127H461.473z"/>
	<path fill="#50A727" d="M478.332,74.933h3.854v4.45h-3.854V74.933z M470.285,74.933h3.853v4.45h-3.853V74.933z M482.311,91.965
		c-0.215-3.468-2.737-6.249-6.376-6.249c-3.766,0-6.117,2.827-6.333,6.249H482.311z M485.818,98.126
		c-0.979,4.923-4.449,7.529-9.455,7.529c-7.057,0-10.401-4.922-10.613-11.637c0-6.675,4.367-11.511,10.397-11.511
		c7.829,0,10.23,7.313,10.02,12.665h-16.564c-0.13,3.853,2.055,7.273,6.89,7.273c3.035,0,5.091-1.413,5.735-4.32H485.818z"/>
	<polygon fill="#50A727" points="510.253,105.145 510.253,87.601 510.121,87.601 503.576,105.145 500.242,105.145 493.691,87.601 
		493.564,87.601 493.564,105.145 489.926,105.145 489.926,83.018 495.189,83.018 501.907,101.08 501.993,101.08 508.712,83.018 
		513.891,83.018 513.891,105.145 	"/>
</g>
<path d="M179.751,45.43l-7.962-23.155h-0.18l-8.222,23.155H179.751z M164.706,6.72h14.253l23.623,63.098h-14.417l-4.789-14.048
	h-23.619l-4.955,14.048h-14.068L164.706,6.72z"/>
<path d="M236.831,59.038c5.404,0,10.265-1.759,10.265-8.31c0-6.449-3.981-9.007-9.995-9.007h-15.136v17.317H236.831z M236.04,32.264
	c4.954,0,8.49-2.21,8.49-7.515c0-5.919-4.601-7.251-9.555-7.251h-13.009v14.766H236.04z M208.079,6.721h29.731
	c12.03,0,20.167,3.884,20.167,15.638c0,6.277-3,10.432-8.58,13.176c7.782,2.206,11.585,8.128,11.585,15.998
	c0,12.808-10.882,18.285-22.293,18.285h-30.611L208.079,6.721L208.079,6.721z"/>
<polygon points="284.356,18.387 265.422,18.387 265.422,6.72 317.173,6.72 317.173,18.387 298.243,18.387 298.243,69.818 
	284.356,69.818 "/>
<path d="M351.16,59.65c12.478,0,17.163-10.597,17.163-21.111c0-11.054-4.687-21.654-17.163-21.654
	c-12.48,0-17.165,10.6-17.165,21.654C333.995,49.053,338.679,59.65,351.16,59.65 M351.16,5.214
	c19.472,0,31.057,14.582,31.057,33.325c0,18.205-11.585,32.786-31.057,32.786c-19.476,0-31.059-14.582-31.059-32.786
	C320.101,19.795,331.684,5.214,351.16,5.214"/>
<path d="M420.005,59.65c12.474,0,17.161-10.597,17.161-21.111c0-11.054-4.688-21.654-17.161-21.654
	c-12.473,0-17.163,10.6-17.163,21.654C402.842,49.053,407.532,59.65,420.005,59.65 M420.005,5.214
	c19.462,0,31.063,14.582,31.063,33.325c0,18.205-11.602,32.786-31.063,32.786c-19.47,0-31.057-14.582-31.057-32.786
	C388.948,19.795,400.535,5.214,420.005,5.214"/>
<polygon points="513.892,69.818 499.999,69.818 499.999,18.387 474.421,18.387 474.421,69.818 460.54,69.818 460.54,6.72 
	513.892,6.72 "/>
<path d="M554.419,59.65c12.471,0,17.172-10.597,17.172-21.111c0-11.054-4.701-21.654-17.172-21.654
	c-12.48,0-17.174,10.6-17.174,21.654C537.245,49.053,541.937,59.65,554.419,59.65 M554.419,5.214
	c19.468,0,31.054,14.582,31.054,33.325c0,18.205-11.586,32.786-31.054,32.786c-19.462,0-31.058-14.582-31.058-32.786
	C523.361,19.795,534.957,5.214,554.419,5.214"/>
<path d="M608.837,36.417h10.788c6.375,0,12.223-1.415,12.223-9.457c0-8.043-5.848-9.462-12.223-9.462h-10.788V36.417z
	 M594.946,6.719h28.49c15.837,0,21.854,9.992,21.854,20.241c0,10.252-6.018,20.239-21.854,20.239h-14.601v22.617h-13.891
	L594.946,6.719L594.946,6.719z"/>
<path d="M679.72,45.43l-7.973-23.155h-0.172l-8.231,23.155H679.72z M664.673,6.72h14.238l23.627,63.098h-14.426l-4.771-14.048
	h-23.622l-4.96,14.048h-14.065L664.673,6.72z"/>
<path d="M713.345,14.041c0.386,0,0.754-0.012,1.1-0.037c0.348-0.026,0.653-0.096,0.921-0.215c0.271-0.119,0.485-0.301,0.646-0.544
	c0.16-0.245,0.239-0.584,0.239-1.025c0-0.368-0.069-0.665-0.216-0.881c-0.141-0.221-0.325-0.389-0.554-0.507
	c-0.229-0.119-0.49-0.199-0.783-0.24c-0.296-0.043-0.586-0.065-0.876-0.065h-2.271v3.516h1.794V14.041z M714.103,9.137
	c1.314,0,2.286,0.26,2.92,0.781c0.631,0.523,0.949,1.316,0.949,2.376c0,0.997-0.278,1.726-0.836,2.19
	c-0.555,0.459-1.245,0.734-2.072,0.818l3.16,4.882h-1.848l-3.006-4.753h-1.82v4.753h-1.722V9.137H714.103z M706.302,17.847
	c0.396,0.987,0.942,1.843,1.646,2.567c0.699,0.725,1.522,1.294,2.475,1.706c0.955,0.414,1.985,0.62,3.1,0.62
	c1.098,0,2.116-0.206,3.062-0.62c0.941-0.412,1.764-0.981,2.466-1.706c0.698-0.724,1.247-1.58,1.643-2.567
	c0.397-0.986,0.596-2.061,0.596-3.225c0-1.13-0.197-2.181-0.596-3.16c-0.396-0.976-0.942-1.824-1.643-2.542
	c-0.702-0.716-1.523-1.281-2.466-1.695c-0.944-0.411-1.964-0.62-3.062-0.62c-1.113,0-2.146,0.209-3.1,0.62
	c-0.951,0.414-1.774,0.979-2.475,1.695c-0.702,0.718-1.249,1.566-1.646,2.542c-0.396,0.979-0.597,2.029-0.597,3.16
	C705.707,15.786,705.907,16.86,706.302,17.847 M704.748,10.906c0.507-1.148,1.191-2.141,2.062-2.984
	c0.867-0.841,1.879-1.507,3.036-1.985c1.152-0.479,2.38-0.723,3.677-0.723s2.521,0.244,3.667,0.723s2.148,1.144,3.008,1.985
	c0.861,0.843,1.543,1.836,2.049,2.984c0.506,1.146,0.761,2.386,0.761,3.716c0,1.367-0.255,2.627-0.761,3.782
	c-0.506,1.152-1.188,2.156-2.049,3.01c-0.858,0.852-1.861,1.511-3.008,1.984c-1.146,0.472-2.37,0.708-3.667,0.708
	s-2.523-0.236-3.677-0.708c-1.157-0.474-2.169-1.133-3.036-1.984c-0.869-0.854-1.555-1.857-2.062-3.01
	c-0.506-1.155-0.76-2.415-0.76-3.782C703.988,13.292,704.242,12.052,704.748,10.906"/>
<path fill="#FFFFFF" d="M572.877,108.89c0.482-9.029,9.311-11.115,15.733-15.13c1.645-1.003,3.13-2.047,3.13-4.413
	c0-2.129-1.687-3.251-3.772-3.251c-3.33,0-4.775,2.207-4.896,5.215h-6.502c0.441-6.661,5.217-10.754,11.759-10.754
	c5.419,0,10.233,2.368,10.233,8.267c0,3.772-2.007,6.181-4.735,8.146c-2.247,1.605-6.059,3.493-8.628,4.656
	c-0.964,0.441-1.887,0.922-2.85,1.405v0.078h14.166l-1.324,5.78H572.877L572.877,108.89z"/>
<path fill="#FFFFFF" d="M610.645,108.708l1.324-6.22h-12.883l1.165-5.459l15.53-16.293h7.505l-3.371,16.213h3.611l-1.122,5.539
	h-3.651l-1.284,6.22H610.645z M605.909,96.951h7.304l2.046-9.552h-0.079L605.909,96.951z"/>
<path fill="#FFFFFF" d="M657.037,86.875l1.284-6.139h20.708l-1.284,6.139c-2.891,2.249-5.379,5.301-7.345,8.188
	c-2.77,4.174-5.217,9.27-5.979,13.645h-7.625c1.283-5.819,4.615-11.72,8.347-16.335c1.405-1.966,3.812-4.254,5.177-5.417v-0.081
	H657.037L657.037,86.875z"/>
</svg>
